<svg width="256" height="165" viewBox="0 0 256 165" fill="none" xmlns="http://www.w3.org/2000/svg">
<path d="M33.9262 144.575L2 165H255V79.0952V1L232.712 19.6227H198.979L178.498 58.6703H135.126L43.5643 128.355L33.9262 144.575Z" fill="#B9E3F5"/>
<path d="M30.5217 153.318L5.55406 162.056C4.4914 162.428 4.75854 164 5.8844 164H255C255.552 164 256 163.552 256 163V76C256 75.4477 255.552 75 255 75H242.971C242.824 75 242.679 75.0324 242.546 75.0949L220.061 85.6568C219.928 85.7193 219.783 85.7517 219.636 85.7517H189.577C189.298 85.7517 189.031 85.8685 188.842 86.0738L170.161 106.336C169.971 106.541 169.705 106.658 169.425 106.658H131.51C131.38 106.658 131.251 106.683 131.131 106.732L41.1293 143.622C41.0174 143.668 40.9147 143.734 40.8262 143.816L30.8736 153.105C30.7723 153.199 30.6525 153.272 30.5217 153.318Z" fill="#0D7ECF"/>
<line x1="4" y1="74.5" x2="255" y2="74.5" stroke="#E0E0E0"/>
<line x1="5" y1="0.5" x2="256" y2="0.5" stroke="#E0E0E0"/>
<rect x="110" y="57" width="93" height="35" rx="4" fill="white"/>
<path d="M119.361 74.2935V72.753H120.927V74.2935H119.361ZM119.361 63.8935V62.353H120.927V63.8935H119.361ZM120.18 73.195C119.521 73.195 118.932 73.0737 118.412 72.831C117.892 72.5883 117.465 72.246 117.131 71.804C116.802 71.362 116.592 70.8377 116.501 70.231L118.048 69.984C118.169 70.517 118.429 70.9417 118.828 71.258C119.231 71.57 119.711 71.726 120.271 71.726C120.808 71.726 121.25 71.6003 121.597 71.349C121.943 71.0933 122.117 70.7705 122.117 70.3805C122.117 70.1075 122.034 69.8865 121.87 69.7175C121.705 69.5442 121.441 69.4012 121.077 69.2885L118.821 68.5865C117.508 68.1792 116.852 67.3818 116.852 66.1945C116.852 65.6398 116.984 65.1567 117.248 64.745C117.517 64.329 117.894 64.0105 118.379 63.7895C118.864 63.5642 119.436 63.4537 120.095 63.458C120.706 63.4623 121.25 63.5728 121.727 63.7895C122.208 64.0062 122.606 64.3182 122.923 64.7255C123.243 65.1328 123.471 65.6225 123.605 66.1945L122 66.487C121.939 66.1793 121.82 65.9085 121.642 65.6745C121.464 65.4405 121.241 65.2585 120.973 65.1285C120.704 64.9985 120.405 64.9292 120.076 64.9205C119.759 64.9162 119.475 64.966 119.224 65.07C118.973 65.1697 118.773 65.3127 118.626 65.499C118.479 65.681 118.405 65.8868 118.405 66.1165C118.405 66.3722 118.507 66.591 118.711 66.773C118.919 66.955 119.246 67.111 119.692 67.241L121.376 67.7285C122.186 67.9625 122.769 68.281 123.124 68.684C123.484 69.0827 123.664 69.6135 123.664 70.2765C123.664 70.8572 123.518 71.3663 123.228 71.804C122.938 72.2417 122.53 72.584 122.006 72.831C121.482 73.0737 120.873 73.195 120.18 73.195ZM127.92 73.195C127.309 73.195 126.759 73.052 126.269 72.766C125.784 72.4757 125.398 72.0748 125.112 71.5635C124.826 71.0522 124.683 70.465 124.683 69.802V66.955C124.683 66.2443 124.824 65.6268 125.106 65.1025C125.392 64.5782 125.79 64.173 126.302 63.887C126.817 63.601 127.415 63.458 128.096 63.458C128.568 63.458 129.016 63.5382 129.441 63.6985C129.866 63.8545 130.243 64.1058 130.572 64.4525L129.441 65.551C129.276 65.356 129.075 65.2022 128.837 65.0895C128.603 64.9768 128.356 64.9205 128.096 64.9205C127.732 64.9205 127.413 65.0072 127.14 65.1805C126.867 65.3495 126.655 65.5727 126.503 65.85C126.356 66.1273 126.282 66.4242 126.282 66.7405V68.294L125.996 67.982C126.265 67.67 126.588 67.4273 126.965 67.254C127.342 67.0763 127.736 66.9875 128.148 66.9875C128.737 66.9875 129.257 67.1218 129.708 67.3905C130.158 67.6548 130.514 68.0188 130.774 68.4825C131.034 68.9418 131.164 69.4662 131.164 70.0555C131.164 70.6405 131.014 71.1713 130.715 71.648C130.42 72.1203 130.028 72.4973 129.539 72.779C129.049 73.0563 128.509 73.195 127.92 73.195ZM127.92 71.6935C128.223 71.6935 128.501 71.622 128.752 71.479C129.003 71.3317 129.203 71.1345 129.35 70.8875C129.502 70.6362 129.578 70.3588 129.578 70.0555C129.578 69.7522 129.504 69.4748 129.357 69.2235C129.209 68.9722 129.01 68.7728 128.759 68.6255C128.512 68.4738 128.236 68.398 127.933 68.398C127.63 68.398 127.352 68.4738 127.101 68.6255C126.85 68.7728 126.65 68.9722 126.503 69.2235C126.356 69.4748 126.282 69.7522 126.282 70.0555C126.282 70.3502 126.354 70.6232 126.497 70.8745C126.644 71.1215 126.841 71.3208 127.088 71.4725C127.339 71.6198 127.617 71.6935 127.92 71.6935ZM135.734 73.195C135.071 73.195 134.486 73.0542 133.979 72.7725C133.472 72.4865 133.076 72.09 132.79 71.583C132.508 71.076 132.367 70.491 132.367 69.828V66.812C132.367 66.149 132.508 65.564 132.79 65.057C133.076 64.55 133.472 64.1557 133.979 63.874C134.486 63.588 135.071 63.445 135.734 63.445C136.397 63.445 136.98 63.588 137.483 63.874C137.99 64.1557 138.386 64.55 138.672 65.057C138.958 65.564 139.101 66.149 139.101 66.812V69.828C139.101 70.491 138.958 71.076 138.672 71.583C138.386 72.09 137.99 72.4865 137.483 72.7725C136.98 73.0542 136.397 73.195 135.734 73.195ZM135.734 71.7065C136.064 71.7065 136.363 71.6285 136.631 71.4725C136.9 71.3122 137.112 71.0998 137.268 70.8355C137.424 70.5668 137.502 70.2678 137.502 69.9385V66.695C137.502 66.3613 137.424 66.0623 137.268 65.798C137.112 65.5293 136.9 65.317 136.631 65.161C136.363 65.0007 136.064 64.9205 135.734 64.9205C135.405 64.9205 135.106 65.0007 134.837 65.161C134.569 65.317 134.356 65.5293 134.2 65.798C134.044 66.0623 133.966 66.3613 133.966 66.695V69.9385C133.966 70.2678 134.044 70.5668 134.2 70.8355C134.356 71.0998 134.569 71.3122 134.837 71.4725C135.106 71.6285 135.405 71.7065 135.734 71.7065ZM143.595 73.195C142.976 73.195 142.425 73.0693 141.944 72.818C141.463 72.5667 141.086 72.2178 140.813 71.7715C140.54 71.3252 140.404 70.8138 140.404 70.2375C140.404 69.7218 140.523 69.243 140.761 68.801C141 68.359 141.349 68.0058 141.808 67.7415L141.775 68.242C141.416 67.969 141.136 67.6548 140.937 67.2995C140.742 66.9398 140.644 66.5368 140.644 66.0905C140.644 65.5532 140.77 65.0873 141.021 64.693C141.277 64.2987 141.626 63.9932 142.068 63.7765C142.51 63.5555 143.019 63.445 143.595 63.445C144.172 63.445 144.681 63.5555 145.123 63.7765C145.569 63.9932 145.918 64.2987 146.169 64.693C146.425 65.0873 146.553 65.5532 146.553 66.0905C146.553 66.5368 146.458 66.9377 146.267 67.293C146.081 67.6483 145.797 67.969 145.415 68.255L145.409 67.748C145.86 68.0037 146.204 68.3547 146.442 68.801C146.685 69.243 146.806 69.7218 146.806 70.2375C146.806 70.8138 146.668 71.3252 146.39 71.7715C146.117 72.2178 145.738 72.5667 145.253 72.818C144.772 73.0693 144.219 73.195 143.595 73.195ZM143.595 71.7195C144.055 71.7195 144.427 71.5938 144.713 71.3425C145.004 71.0912 145.149 70.7228 145.149 70.2375C145.149 69.7522 145.006 69.3838 144.72 69.1325C144.434 68.8768 144.059 68.749 143.595 68.749C143.136 68.749 142.766 68.8768 142.484 69.1325C142.202 69.3838 142.061 69.7522 142.061 70.2375C142.061 70.7228 142.202 71.0912 142.484 71.3425C142.766 71.5938 143.136 71.7195 143.595 71.7195ZM143.595 67.2605C143.981 67.2605 144.293 67.1652 144.531 66.9745C144.774 66.7795 144.895 66.4848 144.895 66.0905C144.895 65.6962 144.774 65.4037 144.531 65.213C144.293 65.018 143.981 64.9205 143.595 64.9205C143.214 64.9205 142.902 65.018 142.659 65.213C142.421 65.4037 142.302 65.6962 142.302 66.0905C142.302 66.4848 142.421 66.7795 142.659 66.9745C142.902 67.1652 143.214 67.2605 143.595 67.2605ZM148.364 73V71.3945H149.969V73H148.364ZM154.685 63.458C155.296 63.458 155.846 63.6032 156.336 63.8935C156.825 64.1795 157.211 64.5782 157.493 65.0895C157.779 65.5965 157.922 66.1815 157.922 66.8445V69.698C157.922 70.4043 157.779 71.0218 157.493 71.5505C157.211 72.0748 156.814 72.48 156.303 72.766C155.792 73.052 155.194 73.195 154.509 73.195C154.037 73.195 153.59 73.1148 153.17 72.9545C152.75 72.7898 152.373 72.5385 152.039 72.2005L153.164 71.102C153.333 71.297 153.534 71.4508 153.768 71.5635C154.006 71.6718 154.253 71.726 154.509 71.726C154.873 71.726 155.192 71.6415 155.465 71.4725C155.738 71.2992 155.95 71.076 156.102 70.803C156.253 70.5257 156.329 70.2288 156.329 69.9125V68.359L156.609 68.671C156.344 68.983 156.024 69.2278 155.647 69.4055C155.27 69.5788 154.873 69.6655 154.457 69.6655C153.872 69.6655 153.352 69.5312 152.897 69.2625C152.446 68.9938 152.091 68.6298 151.831 68.1705C151.575 67.7068 151.448 67.1825 151.448 66.5975C151.448 66.0125 151.595 65.4838 151.89 65.0115C152.184 64.5348 152.576 64.1578 153.066 63.8805C153.56 63.5988 154.1 63.458 154.685 63.458ZM154.685 64.953C154.381 64.953 154.104 65.0267 153.853 65.174C153.601 65.3213 153.402 65.5207 153.255 65.772C153.107 66.019 153.034 66.2942 153.034 66.5975C153.034 66.9008 153.105 67.1782 153.248 67.4295C153.395 67.6808 153.593 67.8802 153.84 68.0275C154.091 68.1748 154.368 68.2485 154.672 68.2485C154.975 68.2485 155.252 68.1748 155.504 68.0275C155.755 67.8802 155.954 67.6808 156.102 67.4295C156.253 67.1782 156.329 66.9008 156.329 66.5975C156.329 66.3028 156.255 66.032 156.108 65.785C155.961 65.5337 155.761 65.3322 155.51 65.1805C155.263 65.0288 154.988 64.953 154.685 64.953ZM162.713 73.195C162.05 73.195 161.465 73.0542 160.958 72.7725C160.451 72.4865 160.055 72.09 159.769 71.583C159.487 71.076 159.346 70.491 159.346 69.828V66.812C159.346 66.149 159.487 65.564 159.769 65.057C160.055 64.55 160.451 64.1557 160.958 63.874C161.465 63.588 162.05 63.445 162.713 63.445C163.376 63.445 163.959 63.588 164.462 63.874C164.969 64.1557 165.365 64.55 165.651 65.057C165.937 65.564 166.08 66.149 166.08 66.812V69.828C166.08 70.491 165.937 71.076 165.651 71.583C165.365 72.09 164.969 72.4865 164.462 72.7725C163.959 73.0542 163.376 73.195 162.713 73.195ZM162.713 71.7065C163.043 71.7065 163.342 71.6285 163.61 71.4725C163.879 71.3122 164.091 71.0998 164.247 70.8355C164.403 70.5668 164.481 70.2678 164.481 69.9385V66.695C164.481 66.3613 164.403 66.0623 164.247 65.798C164.091 65.5293 163.879 65.317 163.61 65.161C163.342 65.0007 163.043 64.9205 162.713 64.9205C162.384 64.9205 162.085 65.0007 161.816 65.161C161.548 65.317 161.335 65.5293 161.179 65.798C161.023 66.0623 160.945 66.3613 160.945 66.695V69.9385C160.945 70.2678 161.023 70.5668 161.179 70.8355C161.335 71.0998 161.548 71.3122 161.816 71.4725C162.085 71.6285 162.384 71.7065 162.713 71.7065Z" fill="#4B4B4B"/>
<path d="M119.66 86.15C118.943 86.15 118.335 85.9917 117.835 85.675C117.335 85.3583 116.953 84.9183 116.69 84.355C116.43 83.7917 116.3 83.14 116.3 82.4C116.3 81.66 116.43 81.0083 116.69 80.445C116.953 79.8817 117.335 79.4417 117.835 79.125C118.335 78.8083 118.943 78.65 119.66 78.65C120.493 78.65 121.178 78.8617 121.715 79.285C122.255 79.7083 122.627 80.2783 122.83 80.995L121.925 81.235C121.778 80.6983 121.517 80.275 121.14 79.965C120.763 79.655 120.27 79.5 119.66 79.5C119.123 79.5 118.677 79.6217 118.32 79.865C117.963 80.1083 117.695 80.4483 117.515 80.885C117.335 81.3183 117.243 81.8233 117.24 82.4C117.237 82.9733 117.325 83.4783 117.505 83.915C117.685 84.3483 117.955 84.6883 118.315 84.935C118.675 85.1783 119.123 85.3 119.66 85.3C120.27 85.3 120.763 85.145 121.14 84.835C121.517 84.5217 121.778 84.0983 121.925 83.565L122.83 83.805C122.627 84.5183 122.255 85.0883 121.715 85.515C121.178 85.9383 120.493 86.15 119.66 86.15ZM125.162 86.15C124.758 86.15 124.42 86.0767 124.147 85.93C123.877 85.78 123.672 85.5833 123.532 85.34C123.395 85.0967 123.327 84.83 123.327 84.54C123.327 84.2567 123.38 84.0117 123.487 83.805C123.597 83.595 123.75 83.4217 123.947 83.285C124.143 83.145 124.378 83.035 124.652 82.955C124.908 82.885 125.195 82.825 125.512 82.775C125.832 82.7217 126.155 82.6733 126.482 82.63C126.808 82.5867 127.113 82.545 127.397 82.505L127.077 82.69C127.087 82.21 126.99 81.855 126.787 81.625C126.587 81.395 126.24 81.28 125.747 81.28C125.42 81.28 125.133 81.355 124.887 81.505C124.643 81.6517 124.472 81.8917 124.372 82.225L123.527 81.97C123.657 81.4967 123.908 81.125 124.282 80.855C124.655 80.585 125.147 80.45 125.757 80.45C126.247 80.45 126.667 80.5383 127.017 80.715C127.37 80.8883 127.623 81.1517 127.777 81.505C127.853 81.6717 127.902 81.8533 127.922 82.05C127.942 82.2433 127.952 82.4467 127.952 82.66V86H127.162V84.705L127.347 84.825C127.143 85.2617 126.858 85.5917 126.492 85.815C126.128 86.0383 125.685 86.15 125.162 86.15ZM125.297 85.405C125.617 85.405 125.893 85.3483 126.127 85.235C126.363 85.1183 126.553 84.9667 126.697 84.78C126.84 84.59 126.933 84.3833 126.977 84.16C127.027 83.9933 127.053 83.8083 127.057 83.605C127.063 83.3983 127.067 83.24 127.067 83.13L127.377 83.265C127.087 83.305 126.802 83.3433 126.522 83.38C126.242 83.4167 125.977 83.4567 125.727 83.5C125.477 83.54 125.252 83.5883 125.052 83.645C124.905 83.6917 124.767 83.7517 124.637 83.825C124.51 83.8983 124.407 83.9933 124.327 84.11C124.25 84.2233 124.212 84.365 124.212 84.535C124.212 84.6817 124.248 84.8217 124.322 84.955C124.398 85.0883 124.515 85.1967 124.672 85.28C124.832 85.3633 125.04 85.405 125.297 85.405ZM131.432 86.15C130.925 86.15 130.498 86.025 130.152 85.775C129.805 85.5217 129.542 85.18 129.362 84.75C129.185 84.3167 129.097 83.8317 129.097 83.295C129.097 82.7517 129.185 82.265 129.362 81.835C129.542 81.405 129.805 81.0667 130.152 80.82C130.502 80.5733 130.93 80.45 131.437 80.45C131.937 80.45 132.367 80.575 132.727 80.825C133.09 81.0717 133.368 81.41 133.562 81.84C133.755 82.27 133.852 82.755 133.852 83.295C133.852 83.835 133.755 84.32 133.562 84.75C133.368 85.18 133.09 85.5217 132.727 85.775C132.367 86.025 131.935 86.15 131.432 86.15ZM128.947 88.4V80.6H129.742V84.575H129.842V88.4H128.947ZM131.322 85.335C131.678 85.335 131.973 85.245 132.207 85.065C132.44 84.885 132.615 84.6417 132.732 84.335C132.848 84.025 132.907 83.6783 132.907 83.295C132.907 82.915 132.848 82.5717 132.732 82.265C132.618 81.9583 132.442 81.715 132.202 81.535C131.965 81.355 131.663 81.265 131.297 81.265C130.947 81.265 130.657 81.3517 130.427 81.525C130.197 81.695 130.025 81.9333 129.912 82.24C129.798 82.5433 129.742 82.895 129.742 83.295C129.742 83.6883 129.797 84.04 129.907 84.35C130.02 84.6567 130.193 84.8983 130.427 85.075C130.66 85.2483 130.958 85.335 131.322 85.335ZM134.748 79.645V78.725H135.638V79.645H134.748ZM134.748 86V80.6H135.638V86H134.748ZM139.853 86C139.533 86.0633 139.216 86.0883 138.903 86.075C138.593 86.065 138.316 86.0033 138.073 85.89C137.83 85.7733 137.645 85.5933 137.518 85.35C137.411 85.1367 137.353 84.9217 137.343 84.705C137.336 84.485 137.333 84.2367 137.333 83.96V79.1H138.223V83.92C138.223 84.14 138.225 84.3283 138.228 84.485C138.235 84.6417 138.27 84.7767 138.333 84.89C138.453 85.1033 138.643 85.2283 138.903 85.265C139.166 85.3017 139.483 85.2917 139.853 85.235V86ZM136.238 81.335V80.6H139.853V81.335H136.238ZM142.184 86.15C141.781 86.15 141.443 86.0767 141.169 85.93C140.899 85.78 140.694 85.5833 140.554 85.34C140.418 85.0967 140.349 84.83 140.349 84.54C140.349 84.2567 140.403 84.0117 140.509 83.805C140.619 83.595 140.773 83.4217 140.969 83.285C141.166 83.145 141.401 83.035 141.674 82.955C141.931 82.885 142.218 82.825 142.534 82.775C142.854 82.7217 143.178 82.6733 143.504 82.63C143.831 82.5867 144.136 82.545 144.419 82.505L144.099 82.69C144.109 82.21 144.013 81.855 143.809 81.625C143.609 81.395 143.263 81.28 142.769 81.28C142.443 81.28 142.156 81.355 141.909 81.505C141.666 81.6517 141.494 81.8917 141.394 82.225L140.549 81.97C140.679 81.4967 140.931 81.125 141.304 80.855C141.678 80.585 142.169 80.45 142.779 80.45C143.269 80.45 143.689 80.5383 144.039 80.715C144.393 80.8883 144.646 81.1517 144.799 81.505C144.876 81.6717 144.924 81.8533 144.944 82.05C144.964 82.2433 144.974 82.4467 144.974 82.66V86H144.184V84.705L144.369 84.825C144.166 85.2617 143.881 85.5917 143.514 85.815C143.151 86.0383 142.708 86.15 142.184 86.15ZM142.319 85.405C142.639 85.405 142.916 85.3483 143.149 85.235C143.386 85.1183 143.576 84.9667 143.719 84.78C143.863 84.59 143.956 84.3833 143.999 84.16C144.049 83.9933 144.076 83.8083 144.079 83.605C144.086 83.3983 144.089 83.24 144.089 83.13L144.399 83.265C144.109 83.305 143.824 83.3433 143.544 83.38C143.264 83.4167 142.999 83.4567 142.749 83.5C142.499 83.54 142.274 83.5883 142.074 83.645C141.928 83.6917 141.789 83.7517 141.659 83.825C141.533 83.8983 141.429 83.9933 141.349 84.11C141.273 84.2233 141.234 84.365 141.234 84.535C141.234 84.6817 141.271 84.8217 141.344 84.955C141.421 85.0883 141.538 85.1967 141.694 85.28C141.854 85.3633 142.063 85.405 142.319 85.405ZM146.074 86V78.65H146.964V86H146.074ZM149.866 86V78.8H154.416V79.645H150.756V81.9H153.816V82.745H150.756V85.155H154.416V86H149.866ZM156.853 86.15C156.45 86.15 156.112 86.0767 155.838 85.93C155.568 85.78 155.363 85.5833 155.223 85.34C155.087 85.0967 155.018 84.83 155.018 84.54C155.018 84.2567 155.072 84.0117 155.178 83.805C155.288 83.595 155.442 83.4217 155.638 83.285C155.835 83.145 156.07 83.035 156.343 82.955C156.6 82.885 156.887 82.825 157.203 82.775C157.523 82.7217 157.847 82.6733 158.173 82.63C158.5 82.5867 158.805 82.545 159.088 82.505L158.768 82.69C158.778 82.21 158.682 81.855 158.478 81.625C158.278 81.395 157.932 81.28 157.438 81.28C157.112 81.28 156.825 81.355 156.578 81.505C156.335 81.6517 156.163 81.8917 156.063 82.225L155.218 81.97C155.348 81.4967 155.6 81.125 155.973 80.855C156.347 80.585 156.838 80.45 157.448 80.45C157.938 80.45 158.358 80.5383 158.708 80.715C159.062 80.8883 159.315 81.1517 159.468 81.505C159.545 81.6717 159.593 81.8533 159.613 82.05C159.633 82.2433 159.643 82.4467 159.643 82.66V86H158.853V84.705L159.038 84.825C158.835 85.2617 158.55 85.5917 158.183 85.815C157.82 86.0383 157.377 86.15 156.853 86.15ZM156.988 85.405C157.308 85.405 157.585 85.3483 157.818 85.235C158.055 85.1183 158.245 84.9667 158.388 84.78C158.532 84.59 158.625 84.3833 158.668 84.16C158.718 83.9933 158.745 83.8083 158.748 83.605C158.755 83.3983 158.758 83.24 158.758 83.13L159.068 83.265C158.778 83.305 158.493 83.3433 158.213 83.38C157.933 83.4167 157.668 83.4567 157.418 83.5C157.168 83.54 156.943 83.5883 156.743 83.645C156.597 83.6917 156.458 83.7517 156.328 83.825C156.202 83.8983 156.098 83.9933 156.018 84.11C155.942 84.2233 155.903 84.365 155.903 84.535C155.903 84.6817 155.94 84.8217 156.013 84.955C156.09 85.0883 156.207 85.1967 156.363 85.28C156.523 85.3633 156.732 85.405 156.988 85.405ZM160.643 86V80.6H161.438V81.905L161.308 81.735C161.372 81.5683 161.453 81.415 161.553 81.275C161.657 81.135 161.772 81.02 161.898 80.93C162.038 80.8167 162.197 80.73 162.373 80.67C162.55 80.61 162.73 80.575 162.913 80.565C163.097 80.5517 163.268 80.5633 163.428 80.6V81.435C163.242 81.385 163.037 81.3717 162.813 81.395C162.59 81.4183 162.383 81.5 162.193 81.64C162.02 81.7633 161.885 81.9133 161.788 82.09C161.695 82.2667 161.63 82.4583 161.593 82.665C161.557 82.8683 161.538 83.0767 161.538 83.29V86H160.643ZM167.919 86V83.295C167.919 83.0383 167.895 82.7917 167.849 82.555C167.805 82.3183 167.727 82.1067 167.614 81.92C167.504 81.73 167.354 81.58 167.164 81.47C166.977 81.36 166.74 81.305 166.454 81.305C166.23 81.305 166.027 81.3433 165.844 81.42C165.664 81.4933 165.509 81.6067 165.379 81.76C165.249 81.9133 165.147 82.1067 165.074 82.34C165.004 82.57 164.969 82.8417 164.969 83.155L164.384 82.975C164.384 82.4517 164.477 82.0033 164.664 81.63C164.854 81.2533 165.119 80.965 165.459 80.765C165.802 80.5617 166.205 80.46 166.669 80.46C167.019 80.46 167.317 80.515 167.564 80.625C167.81 80.735 168.015 80.8817 168.179 81.065C168.342 81.245 168.47 81.4483 168.564 81.675C168.657 81.8983 168.722 82.1267 168.759 82.36C168.799 82.59 168.819 82.8083 168.819 83.015V86H167.919ZM164.069 86V80.6H164.869V82.045H164.969V86H164.069ZM172.11 86.15C171.58 86.15 171.117 86.0333 170.72 85.8C170.327 85.5633 170.02 85.235 169.8 84.815C169.58 84.3917 169.47 83.8983 169.47 83.335C169.47 82.745 169.578 82.235 169.795 81.805C170.012 81.3717 170.313 81.0383 170.7 80.805C171.09 80.5683 171.547 80.45 172.07 80.45C172.613 80.45 173.075 80.575 173.455 80.825C173.838 81.075 174.125 81.4317 174.315 81.895C174.508 82.3583 174.592 82.91 174.565 83.55H173.665V83.23C173.655 82.5667 173.52 82.0717 173.26 81.745C173 81.415 172.613 81.25 172.1 81.25C171.55 81.25 171.132 81.4267 170.845 81.78C170.558 82.1333 170.415 82.64 170.415 83.3C170.415 83.9367 170.558 84.43 170.845 84.78C171.132 85.13 171.54 85.305 172.07 85.305C172.427 85.305 172.737 85.2233 173 85.06C173.263 84.8967 173.47 84.6617 173.62 84.355L174.475 84.65C174.265 85.1267 173.948 85.4967 173.525 85.76C173.105 86.02 172.633 86.15 172.11 86.15ZM170.115 83.55V82.835H174.105V83.55H170.115ZM177.498 86.15C176.995 86.15 176.563 86.025 176.203 85.775C175.843 85.5217 175.565 85.18 175.368 84.75C175.175 84.32 175.078 83.835 175.078 83.295C175.078 82.755 175.175 82.27 175.368 81.84C175.565 81.41 175.843 81.0717 176.203 80.825C176.563 80.575 176.993 80.45 177.493 80.45C178.003 80.45 178.431 80.5733 178.778 80.82C179.125 81.0667 179.386 81.405 179.563 81.835C179.743 82.265 179.833 82.7517 179.833 83.295C179.833 83.8317 179.743 84.3167 179.563 84.75C179.386 85.18 179.125 85.5217 178.778 85.775C178.431 86.025 178.005 86.15 177.498 86.15ZM177.608 85.335C177.971 85.335 178.27 85.2483 178.503 85.075C178.736 84.8983 178.908 84.6567 179.018 84.35C179.131 84.04 179.188 83.6883 179.188 83.295C179.188 82.895 179.131 82.5433 179.018 82.24C178.908 81.9333 178.738 81.695 178.508 81.525C178.278 81.3517 177.986 81.265 177.633 81.265C177.266 81.265 176.963 81.355 176.723 81.535C176.486 81.715 176.31 81.9583 176.193 82.265C176.08 82.5717 176.023 82.915 176.023 83.295C176.023 83.6783 176.081 84.025 176.198 84.335C176.315 84.6417 176.49 84.885 176.723 85.065C176.96 85.245 177.255 85.335 177.608 85.335ZM179.188 86V82.025H179.088V78.8H179.983V86H179.188Z" fill="#9E9E9E"/>
</svg>
